<svg xmlns="http://www.w3.org/2000/svg">
  <symbol id="work">
    <path d="M20 6h-4V4c0-1.11-.89-2-2-2h-4c-1.11 0-2 .89-2 2v2H4c-1.11 0-1.99.89-1.99 2L2 19c0 1.11.89 2 2 2h16c1.11 0 2-.89 2-2V8c0-1.11-.89-2-2-2zm-6 0h-4V4h4v2z" />
  </symbol>
  <symbol id="home">
    <path d="M10 20v-6h4v6h5v-8h3L12 3 2 12h3v8z" />
  </symbol>
  <symbol id="education">
    <path d="M5 13.18v4L12 21l7-3.82v-4L12 17l-7-3.82zM12 3L1 9l11 6 9-4.91V17h2V9L12 3z" />
  </symbol>
  <symbol id="star">
    <path d="M12 17.27L18.18 21l-1.64-7.03L22 9.24l-7.19-.61L12 2 9.19 8.63 2 9.24l5.46 4.73L5.82 21z" />
  </symbol>
  <symbol id="star-half">
    <path d="M22 9.24l-7.19-.62L12 2 9.19 8.63 2 9.24l5.46 4.73L5.82 21 12 17.27 18.18 21l-1.63-7.03L22 9.24zM12 15.4V6.1l1.71 4.04 4.38.38-3.32 2.88 1 4.28L12 15.4z" />
  </symbol>
  <symbol id="star-outlined">
    <path d="M22 9.24l-7.19-.62L12 2 9.19 8.63 2 9.24l5.46 4.73L5.82 21 12 17.27 18.18 21l-1.63-7.03L22 9.24zM12 15.4l-3.76 2.27 1-4.28-3.32-2.88 4.38-.38L12 6.1l1.71 4.04 4.38.38-3.32 2.88 1 4.28L12 15.4z" />
  </symbol>
  <symbol id='clear'>
    <path d="M19 6.41L17.59 5 12 10.59 6.41 5 5 6.41 10.59 12 5 17.59 6.41 19 12 13.41 17.59 19 19 17.59 13.41 12z"></path>
  </symbol>
  <symbol id='exclamation'>
    <path d="M0 0h24v24H0z" fill="none" />
    <circle cx="12" cy="19" r="2" />
    <path d="M10 3h4v12h-4z" />
  </symbol>
  <symbol id='rectangle'>
    <rect rx="2" height="18" width="18" y="3" x="3" />
  </symbol>
  <symbol id='rectangleChecked'>
    <path d="M19 3H5c-1.11 0-2 .9-2 2v14c0 1.1.89 2 2 2h14c1.11 0 2-.9 2-2V5c0-1.1-.89-2-2-2zm-9 14l-5-5 1.41-1.41L10 14.17l7.59-7.59L19 8l-9 9z"></path>
  </symbol>
  <symbol id='gym'>
    <path d="M20.57 14.86L22 13.43 20.57 12 17 15.57 8.43 7 12 3.43 10.57 2 9.14 3.43 7.71 2 5.57 4.14 4.14 2.71 2.71 4.14l1.43 1.43L2 7.71l1.43 1.43L2 10.57 3.43 12 7 8.43 15.57 17 12 20.57 13.43 22l1.43-1.43L16.29 22l2.14-2.14 1.43 1.43 1.43-1.43-1.43-1.43L22 16.29l-1.43-1.43z" />
  </symbol>
  <symbol id='cart'>
    <path d="M15.55 13c.75 0 1.41-.41 1.75-1.03l3.58-6.49c.37-.66-.11-1.48-.87-1.48H5.21l-.94-2H1v2h2l3.6 7.59-1.35 2.44C4.52 15.37 5.48 17 7 17h12v-2H7l1.1-2h7.45zM6.16 6h12.15l-2.76 5H8.53L6.16 6zM7 18c-1.1 0-1.99.9-1.99 2S5.9 22 7 22s2-.9 2-2-.9-2-2-2zm10 0c-1.1 0-1.99.9-1.99 2s.89 2 1.99 2 2-.9 2-2-.9-2-2-2z" />
  </symbol>
</svg>